<svg width="223" height="74" viewBox="0 0 223 74" fill="none" xmlns="http://www.w3.org/2000/svg">
<line x1="101.336" y1="49.37" x2="75.4384" y2="72.9135" stroke="#333333"/>
<line x1="155.234" y1="0.36997" x2="129.336" y2="23.9135" stroke="#333333"/>
<path d="M7.752 44H5.592V28.76H0.24V26.864H13.08V28.76H7.752V44ZM20.7261 30.92C22.2941 30.92 23.4541 31.264 24.2061 31.952C24.9581 32.64 25.3341 33.736 25.3341 35.24V44H23.7981L23.3901 42.176H23.2941C22.7341 42.88 22.1421 43.4 21.5181 43.736C20.9101 44.072 20.0621 44.24 18.9741 44.24C17.8061 44.24 16.8381 43.936 16.0701 43.328C15.3021 42.704 14.9181 41.736 14.9181 40.424C14.9181 39.144 15.4221 38.16 16.4301 37.472C17.4381 36.768 18.9901 36.384 21.0861 36.32L23.2701 36.248V35.48C23.2701 34.408 23.0381 33.664 22.5741 33.248C22.1101 32.832 21.4541 32.624 20.6061 32.624C19.9341 32.624 19.2941 32.728 18.6861 32.936C18.0781 33.128 17.5101 33.352 16.9821 33.608L16.3341 32.024C16.8941 31.72 17.5581 31.464 18.3261 31.256C19.0941 31.032 19.8941 30.92 20.7261 30.92ZM23.2461 37.712L21.3501 37.784C19.7501 37.848 18.6381 38.104 18.0141 38.552C17.4061 39 17.1021 39.632 17.1021 40.448C17.1021 41.168 17.3181 41.696 17.7501 42.032C18.1981 42.368 18.7661 42.536 19.4541 42.536C20.5421 42.536 21.4461 42.24 22.1661 41.648C22.8861 41.04 23.2461 40.112 23.2461 38.864V37.712ZM33.7952 25.76V35.288C33.7952 35.544 33.7792 35.88 33.7472 36.296C33.7312 36.712 33.7152 37.072 33.6992 37.376H33.7952C33.8912 37.248 34.0352 37.064 34.2272 36.824C34.4192 36.584 34.6112 36.344 34.8032 36.104C35.0112 35.848 35.1872 35.64 35.3312 35.48L39.4352 31.136H41.9072L36.6992 36.632L42.2672 44H39.7232L35.2592 38L33.7952 39.272V44H31.7072V25.76H33.7952ZM51.7995 30.92C53.3675 30.92 54.5275 31.264 55.2795 31.952C56.0315 32.64 56.4075 33.736 56.4075 35.24V44H54.8715L54.4635 42.176H54.3675C53.8075 42.88 53.2155 43.4 52.5915 43.736C51.9835 44.072 51.1355 44.24 50.0475 44.24C48.8795 44.24 47.9115 43.936 47.1435 43.328C46.3755 42.704 45.9915 41.736 45.9915 40.424C45.9915 39.144 46.4955 38.16 47.5035 37.472C48.5115 36.768 50.0635 36.384 52.1595 36.32L54.3435 36.248V35.48C54.3435 34.408 54.1115 33.664 53.6475 33.248C53.1835 32.832 52.5275 32.624 51.6795 32.624C51.0075 32.624 50.3675 32.728 49.7595 32.936C49.1515 33.128 48.5835 33.352 48.0555 33.608L47.4075 32.024C47.9675 31.72 48.6315 31.464 49.3995 31.256C50.1675 31.032 50.9675 30.92 51.7995 30.92ZM54.3195 37.712L52.4235 37.784C50.8235 37.848 49.7115 38.104 49.0875 38.552C48.4795 39 48.1755 39.632 48.1755 40.448C48.1755 41.168 48.3915 41.696 48.8235 42.032C49.2715 42.368 49.8395 42.536 50.5275 42.536C51.6155 42.536 52.5195 42.24 53.2395 41.648C53.9595 41.04 54.3195 40.112 54.3195 38.864V37.712ZM71.1566 40.448C71.1566 41.696 70.6926 42.64 69.7646 43.28C68.8366 43.92 67.5886 44.24 66.0206 44.24C65.1246 44.24 64.3486 44.168 63.6926 44.024C63.0526 43.88 62.4846 43.68 61.9886 43.424V41.504C62.5006 41.76 63.1166 42 63.8366 42.224C64.5726 42.432 65.3166 42.536 66.0686 42.536C67.1406 42.536 67.9166 42.368 68.3966 42.032C68.8766 41.68 69.1166 41.216 69.1166 40.64C69.1166 40.32 69.0286 40.032 68.8526 39.776C68.6766 39.52 68.3566 39.264 67.8926 39.008C67.4446 38.752 66.7966 38.464 65.9486 38.144C65.1166 37.824 64.4046 37.504 63.8126 37.184C63.2206 36.864 62.7646 36.48 62.4446 36.032C62.1246 35.584 61.9646 35.008 61.9646 34.304C61.9646 33.216 62.4046 32.376 63.2846 31.784C64.1806 31.192 65.3486 30.896 66.7886 30.896C67.5726 30.896 68.3006 30.976 68.9726 31.136C69.6606 31.28 70.3006 31.488 70.8926 31.76L70.1726 33.44C69.6286 33.216 69.0606 33.024 68.4686 32.864C67.8766 32.704 67.2686 32.624 66.6446 32.624C65.7806 32.624 65.1166 32.768 64.6526 33.056C64.2046 33.328 63.9806 33.704 63.9806 34.184C63.9806 34.536 64.0846 34.84 64.2926 35.096C64.5006 35.336 64.8446 35.576 65.3246 35.816C65.8206 36.04 66.4766 36.312 67.2926 36.632C68.1086 36.936 68.8046 37.248 69.3806 37.568C69.9566 37.888 70.3966 38.28 70.7006 38.744C71.0046 39.192 71.1566 39.76 71.1566 40.448ZM78.777 25.76V31.112C78.777 31.752 78.737 32.352 78.657 32.912H78.801C79.217 32.256 79.777 31.76 80.481 31.424C81.201 31.088 81.977 30.92 82.809 30.92C84.377 30.92 85.553 31.296 86.337 32.048C87.121 32.784 87.513 33.976 87.513 35.624V44H85.425V35.768C85.425 33.704 84.465 32.672 82.545 32.672C81.105 32.672 80.113 33.08 79.569 33.896C79.041 34.696 78.777 35.848 78.777 37.352V44H76.665V25.76H78.777ZM94.9809 26.312C95.3009 26.312 95.5809 26.424 95.8209 26.648C96.0769 26.856 96.2049 27.192 96.2049 27.656C96.2049 28.104 96.0769 28.44 95.8209 28.664C95.5809 28.888 95.3009 29 94.9809 29C94.6289 29 94.3329 28.888 94.0929 28.664C93.8529 28.44 93.7329 28.104 93.7329 27.656C93.7329 27.192 93.8529 26.856 94.0929 26.648C94.3329 26.424 94.6289 26.312 94.9809 26.312ZM96.0129 31.136V44H93.9009V31.136H96.0129ZM116.6 30.896C118.056 30.896 119.144 31.272 119.864 32.024C120.584 32.76 120.944 33.96 120.944 35.624V44H118.856V35.72C118.856 33.688 117.984 32.672 116.24 32.672C114.992 32.672 114.096 33.032 113.552 33.752C113.024 34.472 112.76 35.52 112.76 36.896V44H110.672V35.72C110.672 33.688 109.792 32.672 108.032 32.672C106.736 32.672 105.84 33.072 105.344 33.872C104.848 34.672 104.6 35.824 104.6 37.328V44H102.488V31.136H104.192L104.504 32.888H104.624C105.024 32.216 105.56 31.72 106.232 31.4C106.92 31.064 107.648 30.896 108.416 30.896C110.432 30.896 111.744 31.616 112.352 33.056H112.472C112.904 32.32 113.488 31.776 114.224 31.424C114.976 31.072 115.768 30.896 116.6 30.896ZM132.19 30.92C133.758 30.92 134.918 31.264 135.67 31.952C136.422 32.64 136.798 33.736 136.798 35.24V44H135.262L134.854 42.176H134.758C134.198 42.88 133.606 43.4 132.982 43.736C132.374 44.072 131.526 44.24 130.438 44.24C129.27 44.24 128.302 43.936 127.534 43.328C126.766 42.704 126.382 41.736 126.382 40.424C126.382 39.144 126.886 38.16 127.894 37.472C128.902 36.768 130.454 36.384 132.55 36.32L134.734 36.248V35.48C134.734 34.408 134.502 33.664 134.038 33.248C133.574 32.832 132.918 32.624 132.07 32.624C131.398 32.624 130.758 32.728 130.15 32.936C129.542 33.128 128.974 33.352 128.446 33.608L127.798 32.024C128.358 31.72 129.022 31.464 129.79 31.256C130.558 31.032 131.358 30.92 132.19 30.92ZM134.71 37.712L132.814 37.784C131.214 37.848 130.102 38.104 129.478 38.552C128.87 39 128.566 39.632 128.566 40.448C128.566 41.168 128.782 41.696 129.214 42.032C129.662 42.368 130.23 42.536 130.918 42.536C132.006 42.536 132.91 42.24 133.63 41.648C134.35 41.04 134.71 40.112 134.71 38.864V37.712ZM164.622 44H162.078L156.006 35.816L154.254 37.352V44H152.094V26.864H154.254V35.312C154.734 34.768 155.222 34.224 155.718 33.68C156.214 33.136 156.71 32.592 157.206 32.048L161.838 26.864H164.358L157.566 34.328L164.622 44ZM173.937 30.92C175.505 30.92 176.665 31.264 177.417 31.952C178.169 32.64 178.545 33.736 178.545 35.24V44H177.009L176.601 42.176H176.505C175.945 42.88 175.353 43.4 174.729 43.736C174.121 44.072 173.273 44.24 172.185 44.24C171.017 44.24 170.049 43.936 169.281 43.328C168.513 42.704 168.129 41.736 168.129 40.424C168.129 39.144 168.633 38.16 169.641 37.472C170.649 36.768 172.201 36.384 174.297 36.32L176.481 36.248V35.48C176.481 34.408 176.249 33.664 175.785 33.248C175.321 32.832 174.665 32.624 173.817 32.624C173.145 32.624 172.505 32.728 171.897 32.936C171.289 33.128 170.721 33.352 170.193 33.608L169.545 32.024C170.105 31.72 170.769 31.464 171.537 31.256C172.305 31.032 173.105 30.92 173.937 30.92ZM176.457 37.712L174.561 37.784C172.961 37.848 171.849 38.104 171.225 38.552C170.617 39 170.313 39.632 170.313 40.448C170.313 41.168 170.529 41.696 170.961 42.032C171.409 42.368 171.977 42.536 172.665 42.536C173.753 42.536 174.657 42.24 175.377 41.648C176.097 41.04 176.457 40.112 176.457 38.864V37.712ZM189.214 42.512C189.534 42.512 189.862 42.488 190.198 42.44C190.534 42.376 190.806 42.312 191.014 42.248V43.856C190.79 43.968 190.47 44.056 190.054 44.12C189.638 44.2 189.238 44.24 188.854 44.24C188.182 44.24 187.558 44.128 186.982 43.904C186.422 43.664 185.966 43.256 185.614 42.68C185.262 42.104 185.086 41.296 185.086 40.256V32.768H183.262V31.76L185.11 30.92L185.95 28.184H187.198V31.136H190.918V32.768H187.198V40.208C187.198 40.992 187.382 41.576 187.75 41.96C188.134 42.328 188.622 42.512 189.214 42.512ZM204.366 40.448C204.366 41.696 203.902 42.64 202.974 43.28C202.046 43.92 200.798 44.24 199.23 44.24C198.334 44.24 197.558 44.168 196.902 44.024C196.262 43.88 195.694 43.68 195.198 43.424V41.504C195.71 41.76 196.326 42 197.046 42.224C197.782 42.432 198.526 42.536 199.278 42.536C200.35 42.536 201.126 42.368 201.606 42.032C202.086 41.68 202.326 41.216 202.326 40.64C202.326 40.32 202.238 40.032 202.062 39.776C201.886 39.52 201.566 39.264 201.102 39.008C200.654 38.752 200.006 38.464 199.158 38.144C198.326 37.824 197.614 37.504 197.022 37.184C196.43 36.864 195.974 36.48 195.654 36.032C195.334 35.584 195.174 35.008 195.174 34.304C195.174 33.216 195.614 32.376 196.494 31.784C197.39 31.192 198.558 30.896 199.998 30.896C200.782 30.896 201.51 30.976 202.182 31.136C202.87 31.28 203.51 31.488 204.102 31.76L203.382 33.44C202.838 33.216 202.27 33.024 201.678 32.864C201.086 32.704 200.478 32.624 199.854 32.624C198.99 32.624 198.326 32.768 197.862 33.056C197.414 33.328 197.19 33.704 197.19 34.184C197.19 34.536 197.294 34.84 197.502 35.096C197.71 35.336 198.054 35.576 198.534 35.816C199.03 36.04 199.686 36.312 200.502 36.632C201.318 36.936 202.014 37.248 202.59 37.568C203.166 37.888 203.606 38.28 203.91 38.744C204.214 39.192 204.366 39.76 204.366 40.448ZM220.626 31.136V44H218.898L218.586 42.296H218.49C218.074 42.968 217.498 43.464 216.762 43.784C216.026 44.088 215.242 44.24 214.41 44.24C212.858 44.24 211.69 43.872 210.906 43.136C210.122 42.384 209.73 41.192 209.73 39.56V31.136H211.866V39.416C211.866 41.464 212.818 42.488 214.722 42.488C216.146 42.488 217.13 42.088 217.674 41.288C218.234 40.488 218.514 39.336 218.514 37.832V31.136H220.626Z" fill="#333333"/>
</svg>
